<?xml version="1.0" standalone="no"?>
<!DOCTYPE svg PUBLIC "-//W3C//DTD SVG 1.1//EN" "http://www.w3.org/Graphics/SVG/1.1/DTD/svg11.dtd">

<svg width="135" height="50" viewBox="0 0 135 50" 
  xmlns="http://www.w3.org/2000/svg"
  xmlns:xlink="http://www.w3.org/1999/xlink">


<polyline points="0.0, 25.38354184653485 0.7988165680473372, 22.98769456004536 1.5976331360946745, 20.52294167649638 2.396449704142012, 22.14469331040137 3.195266272189349, 21.70389941115303 3.994082840236686, 22.924824786272875 4.792899408284024, 25.314842704944972 5.591715976331361, 24.000268530017006 6.390532544378698, 20.058319444763715 7.189349112426036, 16.37595103922181 7.988165680473372, 18.462273564654915 8.78698224852071, 20.38535889735778 9.585798816568047, 18.130917779783832 10.384615384615385, 20.01877210288071 11.183431952662723, 19.25062688259323 11.982248520710058, 19.168166485857395 12.781065088757396, 19.409369887616002 13.579881656804734, 27.54932627830979 14.378698224852071, 28.30831932497387 15.177514792899409, 27.620480741457477 15.976331360946745, 24.381010136232263 16.775147928994084, 21.773644700053353 17.57396449704142, 23.622466452374372 18.37278106508876, 28.17963164831909 19.171597633136095, 34.74023470617713 19.970414201183434, 34.40383924871803 20.76923076923077, 33.2296890240614 21.56804733727811, 32.589926118468725 22.366863905325445, 32.62636787343318 23.16568047337278, 31.450796159492278 23.964497041420117, 39.76498087910183 24.763313609467456, 40.41210930775348 25.562130177514792, 42.72447096523069 26.36094674556213, 47.578216587546294 27.159763313609467, 46.00464015197288 27.958579881656807, 48.2317056352952 28.757396449704142, 47.57368686842698 29.55621301775148, 42.965412326621305 30.355029585798817, 43.937249144969904 31.153846153846157, 44.865780011516165 31.95266272189349, 46.055375759196124 32.751479289940825, 50.0 33.55029585798817, 43.203525937396535 34.349112426035504, 42.50706828415334 35.14792899408284, 39.27343819395567 35.94674556213018, 31.52395154293714 36.74556213017752, 32.68035989751101 37.54437869822485, 32.40478457411582 38.34319526627219, 30.090912320290546 39.142011834319526, 26.66161460367868 39.94082840236687, 22.287443957692496 40.7396449704142, 21.968673050052118 41.53846153846154, 20.463326913328448 42.337278106508876, 20.278583365061984 43.13609467455622, 20.82317534605424 43.93491124260355, 17.304128865825007 44.73372781065089, 16.799338740023753 45.532544378698226, 17.85062287181463 46.33136094674556, 19.28716020663435 47.1301775147929, 18.03940579755626 47.928994082840234, 16.696589784192522 48.72781065088758, 17.452943975212285 49.52662721893491, 19.66442866449738 50.32544378698225, 4.739989999198431 51.124260355029584, 4.24261819517612 51.92307692307693, 3.5840341660921524 52.72189349112426, 1.309361764533289 53.5207100591716, 2.84928789657428 54.319526627218934, 3.5715795216989448 55.11834319526627, 4.105735904074197 55.91715976331361, 4.2323492790374475 56.71597633136094, 4.382424517462498 57.514792899408285, 4.030042834575133 58.31360946745562, 4.0998740260260185 59.11242603550296, 3.0666579854305374 59.91124260355029, 3.5148848757423687 60.710059171597635, 3.980941178920315 61.50887573964497, 21.114339372120455 62.307692307692314, 16.54854344147051 63.10650887573964, 19.859875537721916 63.90532544378698, 17.459296835868066 64.70414201183432, 12.655405969517453 65.50295857988165, 11.340530285523506 66.30177514792899, 12.818276687734311 67.10059171597634, 12.577498254381819 67.89940828402366, 14.210909289365892 68.69822485207101, 9.048820920697356 69.49704142011834, 15.056937943839758 70.29585798816568, 9.344240980485564 71.09467455621302, 12.185035200418486 71.89349112426036, 9.922738304225119 72.6923076923077, 8.387709627799781 73.49112426035504, 8.951583506370712 74.28994082840237, 7.7488197336986016 75.0887573964497, 12.038496993227753 75.88757396449704, 14.61572590668368 76.68639053254438, 15.803002369555186 77.48520710059172, 17.27890770890152 78.28402366863905, 27.013003467893697 79.0828402366864, 25.927637136669695 79.88165680473374, 22.465083602559304 80.68047337278107, 24.587702719003182 81.4792899408284, 23.11705820092433 82.27810650887574, 25.521769047910265 83.07692307692308, 23.3930457207077 83.87573964497041, 24.396579113089846 84.67455621301775, 21.677237212161796 85.4733727810651, 24.042648279201178 86.27218934911244, 22.637059621269135 87.07100591715975, 20.557552654527854 87.8698224852071, 19.294089117447225 88.66863905325444, 15.092357092602738 89.46745562130178, 11.906168844443787 90.26627218934911, 8.404695569123053 91.06508875739645, 10.742039506904835 91.8639053254438, 2.6133255538069933 92.66272189349112, 3.493563214575986 93.46153846153845, 0.0 94.2603550295858, 6.1192943737194065 95.05917159763314, 5.397089620524373 95.85798816568047, 4.534037596509703 96.65680473372781, 6.134004137513763 97.45562130177515, 7.158509553915648 98.2544378698225, 9.131204991490186 99.05325443786982, 10.07250815060948 99.85207100591715, 6.500352106914961 100.6508875739645, 5.744567063177457 101.44970414201183, 7.955067820778132 102.24852071005917, 17.755949134573914 103.04733727810651, 21.741002174584835 103.84615384615385, 19.27232213081977 104.64497041420118, 18.92157648930864 105.44378698224853, 18.65174405980996 106.24260355029585, 18.467378100075734 107.0414201183432, 20.529887004878816 107.84023668639053, 23.77672546537489 108.63905325443787, 21.37635153032557 109.43786982248521, 20.758508771198013 110.23668639053254, 23.90373945843995 111.03550295857988, 26.375400444997048 111.83431952662723, 20.105242451777734 112.63313609467457, 18.510351388408 113.43195266272188, 18.919627299705695 114.23076923076923, 18.660386788999965 115.02958579881657, 20.922976431449307 115.82840236686391, 25.95431791584825 116.62721893491124, 24.82250422460355 117.42603550295858, 20.553489568697476 118.22485207100593, 13.2388107225472 119.02366863905324, 13.899546849281258 119.82248520710058, 11.443474519610959 120.62130177514793, 14.997250078003013 121.42011834319527, 18.777672596104836 122.2189349112426, 23.789523352065217 123.01775147928994, 27.39002769530952 123.81656804733728, 27.221691918419015 124.61538461538463, 25.29598249590734 125.41420118343194, 27.6115786087572 126.21301775147928, 31.24145216683083 127.01183431952663, 35.594749208799605 127.81065088757396, 38.07525414524659 128.60946745562129, 37.5306999026048 129.40828402366864, 42.69994608197052 130.20710059171597, 40.87807893282934 131.0059171597633, 36.29664786214114 131.80473372781066, 37.320686837505214 132.60355029585799, 36.3399393416483 133.40236686390534, 36.572381117289716 134.20118343195267, 32.12271885111987" fill="none" stroke="#ed5565" stroke-width="1.25"/>

</svg>